<svg width="181" height="181" viewBox="0 0 181 181" fill="none" xmlns="http://www.w3.org/2000/svg">
<g clip-path="url(#clip0_47834_24187)">
<path d="M69.7602 115.059C64.9518 117.428 59.012 116.402 54.4511 113.68C49.8548 110.958 46.39 106.68 43.2433 102.366C41.4401 99.8558 39.7076 97.2748 38.6823 94.3756C35.3942 85.0063 40.2027 74.541 47.1324 67.3991C54.0268 60.2572 62.9011 55.3428 70.3258 48.7312C73.4725 45.9381 76.3363 42.8621 79.6951 40.3518C88.1452 33.9524 99.4237 31.4422 109.818 33.6696C115.405 34.8717 120.849 37.488 124.703 41.6954C127.708 44.9481 129.653 49.014 132.057 52.7264C134.391 56.3327 137.149 59.6562 140.295 62.5907C143.088 65.2071 146.164 67.5405 148.71 70.4043C157.301 80.1272 157.726 96.0728 149.7 106.255C144.396 112.973 136.335 116.897 128.274 119.62C121.769 121.847 124.915 102.26 118.056 101.588C113.071 101.093 96.171 109.084 91.1858 117.145C89.0645 120.574 85.2107 120.574 81.2155 120.327C76.2303 120.044 71.3158 118.453 67.0731 115.801" fill="#F4F6F9"/>
<path d="M55.3347 155.682C55.5468 153.95 57.1379 152.642 57.5621 150.945C57.7389 150.238 57.7035 149.46 57.6681 148.717C57.3853 143.485 57.3853 138.217 57.6681 132.984C57.7742 130.756 57.951 128.458 59.1177 126.549C60.0016 125.1 61.4159 123.897 61.5927 122.2C61.6987 121.175 61.3098 120.185 61.3098 119.16C61.3098 118.134 61.9109 116.932 62.9362 116.932L62.4766 116.72C62.8301 114.599 61.4866 112.548 59.8603 111.134C58.2339 109.72 56.2539 108.73 54.6983 107.28C52.8951 105.618 51.693 103.462 50.5616 101.305C48.4756 97.3806 46.4957 93.2793 46.1422 88.8598C46.0361 87.5517 46.1068 86.2081 46.5664 85.006C47.6271 82.2836 50.4555 80.7986 53.0719 79.5258L53.1779 78.8894C54.0265 76.2024 56.9611 74.6467 59.7542 74.5053C62.5473 74.3639 65.2696 75.3538 67.9213 76.3438C72.3055 77.9702 76.9371 79.8087 79.5181 83.6978C82.0284 87.4456 81.5688 91.4761 81.7809 95.7188C81.9577 98.9716 82.983 101.694 82.7001 105.088C82.594 106.22 82.4526 107.351 82.594 108.447C82.9122 110.639 84.4325 112.69 84.185 114.882L83.9023 113.75C86.2711 118.064 87.756 122.837 88.251 127.751C88.4277 129.342 88.4985 131.039 89.3116 132.418C90.1248 133.797 91.5745 134.681 92.7058 135.848C96.2414 139.595 95.7464 145.5 94.8979 150.627" fill="white"/>
<path d="M94.0495 136.731C93.3424 135.706 92.4231 134.893 91.4685 134.044C90.4785 133.16 89.63 132.241 89.2411 130.933C88.8522 129.589 88.8522 128.21 88.6754 126.832C88.4986 125.382 88.2157 123.968 87.8975 122.554C87.1904 119.654 86.0944 116.861 84.7155 114.21C84.6448 112.3 83.5488 110.603 83.1599 108.765C82.9124 107.633 83.0892 106.431 83.1953 105.3C83.3013 104.133 83.2659 102.966 83.1245 101.835C82.877 99.6783 82.3467 97.5215 82.276 95.3295C82.1699 93.2081 82.2406 91.0515 81.9224 88.9301C81.6396 86.8088 80.8971 84.7581 79.6243 83.0257C78.4929 81.47 77.0079 80.2326 75.3816 79.2072C73.7199 78.1819 71.8813 77.3687 70.0782 76.6616C67.9922 75.8484 65.8708 74.9998 63.7141 74.4695C61.4514 73.9038 59.0118 73.7978 56.8197 74.6817C54.9105 75.4595 53.3195 76.8384 52.6831 78.8183C52.6478 78.9597 52.6477 79.1012 52.7184 79.2072C50.3849 80.3386 47.91 81.6468 46.5665 83.9449C44.9755 86.6673 45.5766 90.2029 46.3897 93.0667C47.2736 96.2134 48.794 99.1833 50.3143 102.047C51.0568 103.426 51.7992 104.77 52.7538 105.972C53.7084 107.209 54.8398 108.234 56.1126 109.118C57.5269 110.108 59.0118 110.992 60.2139 112.23C61.31 113.396 62.2292 114.952 61.9463 116.614C61.9463 116.684 61.9463 116.72 61.9463 116.755C61.3806 117.109 60.9917 117.781 60.8503 118.452C60.5674 119.796 61.3099 121.104 61.0271 122.448C60.7796 123.65 59.8604 124.604 59.1533 125.559C58.3754 126.619 57.8451 127.822 57.5622 129.13C57.2794 130.473 57.1733 131.852 57.1379 133.231C57.0672 134.787 56.9965 136.378 56.9965 137.969C56.9258 141.151 56.9965 144.333 57.1026 147.515C57.138 148.328 57.2086 149.177 57.1733 150.025C57.1379 150.732 56.9258 151.369 56.5723 152.005C55.9359 153.172 55.0165 154.232 54.8398 155.576C54.8044 155.859 54.9105 156.142 55.1933 156.212C55.4408 156.283 55.7944 156.142 55.8298 155.859C56.0065 154.727 56.6783 153.843 57.2794 152.889C57.9511 151.757 58.2693 150.626 58.1986 149.318C58.0925 146.313 57.9511 143.307 57.9865 140.267C57.9865 137.297 58.0218 134.292 58.3047 131.322C58.4107 130.014 58.6583 128.67 59.224 127.503C59.7543 126.407 60.5675 125.523 61.2392 124.533C61.5928 124.003 61.8756 123.437 62.0524 122.836C62.2292 122.129 62.1585 121.387 62.0524 120.68C61.9464 119.973 61.7696 119.265 61.9463 118.558C62.0524 118.24 62.2292 117.887 62.5121 117.674C65.7648 118.417 69.0529 119.195 72.4117 118.947C75.2402 118.735 78.0333 117.851 80.4375 116.366C81.5335 115.694 82.5588 114.952 83.478 114.068C83.5488 114.21 83.6195 114.351 83.6902 114.492C83.6902 114.634 83.6902 114.775 83.6548 114.917C83.6195 115.27 83.9024 115.447 84.1499 115.412C85.1752 117.498 86.0237 119.654 86.6248 121.882C86.9783 123.225 87.2965 124.604 87.5087 125.983C87.7208 127.362 87.7915 128.776 88.0036 130.155C88.2157 131.463 88.6754 132.63 89.5593 133.62C90.3725 134.575 91.4332 135.282 92.2817 136.166C93.8727 137.827 94.6505 140.055 94.898 142.317C95.1809 145.04 94.8627 147.762 94.4031 150.449C94.297 151.121 95.3223 151.404 95.4284 150.732C96.1708 146.207 96.8073 140.797 94.0495 136.731ZM76.6544 116.932C73.8967 117.887 71.0328 118.063 68.1336 117.71C66.5426 117.498 64.9516 117.144 63.396 116.791C63.3606 116.614 63.2192 116.472 63.007 116.472C63.2192 113.679 61.1685 111.452 59.0118 109.861C57.7743 108.942 56.4309 108.164 55.2641 107.138C54.0974 106.113 53.2134 104.911 52.4002 103.603C51.5871 102.295 50.8799 100.88 50.1728 99.5015C49.4303 98.0519 48.7232 96.6023 48.1575 95.082C47.5918 93.597 47.1322 92.0414 46.8494 90.4857C46.6019 88.9654 46.4251 87.2684 46.8494 85.7481C47.6626 82.8135 50.6325 81.2932 53.1428 80.0911C53.2488 80.2679 53.4609 80.4094 53.7084 80.374C54.2741 80.2679 54.9105 80.1618 55.4762 80.3032C56.148 80.48 56.3955 80.975 56.5016 81.6468C56.6783 82.7781 56.5015 84.0156 56.0065 85.041C55.8298 85.3945 55.6176 85.7127 55.4055 86.0309C55.1227 86.0663 54.9459 86.2784 54.9459 86.5613C54.5216 86.9502 54.062 87.2683 53.4963 87.4805C52.1174 88.0108 50.3496 88.1523 48.9 87.7987C48.2283 87.622 47.9454 88.6472 48.6172 88.824C50.0314 89.1776 51.587 89.1069 53.0013 88.7533C53.7438 88.5765 54.4155 88.2937 55.0165 87.8694C55.2994 89.319 56.1833 90.6272 57.4562 91.3696C57.4915 91.405 57.5269 91.405 57.5622 91.405C57.7037 91.9354 57.8804 92.4304 58.0926 92.9253C58.729 94.3749 59.931 96.1781 61.7342 96.0013C61.8756 96.0013 61.9817 95.9305 62.0877 95.8598C62.7948 96.673 63.7141 97.3448 64.7394 97.7337C63.0777 99.2893 62.2999 101.694 62.8656 103.921C63.0424 104.593 64.0677 104.31 63.8909 103.638C63.3959 101.623 64.2091 99.3247 65.9062 98.0872L65.9416 98.0519C66.0123 98.0519 66.0829 98.0872 66.1537 98.0872C67.6032 98.2994 69.0883 98.1226 70.4671 97.5923C71.7046 97.0973 73.0127 96.2841 73.5077 94.9759C73.8259 94.1274 73.6492 93.3142 73.1895 92.6778C73.2249 92.6424 73.2603 92.6424 73.2956 92.6071C73.4017 92.5364 73.5077 92.501 73.6138 92.4303C73.6491 92.4303 73.6845 92.395 73.6845 92.395C73.7552 92.3596 73.7905 92.3596 73.8613 92.3242C73.9673 92.2889 74.0734 92.2535 74.2148 92.2535C74.2502 92.2535 74.2855 92.2535 74.3209 92.2535C74.3916 92.2535 74.427 92.2535 74.4977 92.2535C74.5684 92.2535 74.6391 92.2535 74.6745 92.2535C74.7098 92.2535 74.7452 92.2535 74.7452 92.2535C74.7805 92.2535 74.7805 92.2535 74.8158 92.2535C74.7805 92.2535 74.7805 92.2535 74.7452 92.2535C74.7805 92.2535 74.8866 92.2889 74.9219 92.2889C74.9926 92.2889 75.0634 92.3242 75.1341 92.3242C75.417 92.3949 75.7352 92.2182 75.7705 91.9707C75.8412 91.6878 75.6998 91.405 75.417 91.3343C74.3916 91.0161 73.2249 91.2636 72.4117 91.9354C72.2349 91.8293 72.0935 91.7232 71.8814 91.6525C71.5278 91.5111 71.1743 91.405 70.8207 91.3696C70.8561 91.3696 70.856 91.3343 70.8914 91.3343C71.245 91.0515 71.5278 90.6979 71.7753 90.309C72.3763 89.4251 72.942 88.5412 73.5431 87.6926C73.7199 87.4452 73.5784 87.0916 73.3663 86.9501C73.1188 86.8087 72.8006 86.9148 72.6238 87.1269C72.0935 87.9047 71.5632 88.6826 71.0682 89.4604C70.856 89.7786 70.6792 90.0615 70.4318 90.309C70.3964 90.3443 70.2903 90.4504 70.255 90.4857C70.2903 90.4504 70.1843 90.5564 70.1843 90.5564C70.1489 90.5918 70.1136 90.5918 70.0782 90.6272C70.0782 90.6272 70.0428 90.6272 70.0428 90.6625C70.0074 90.6625 69.9722 90.6979 69.9368 90.6979C69.9368 90.6979 69.76 90.6979 69.866 90.6979C69.5832 90.6625 69.3004 90.7686 69.2297 91.0515C69.1943 91.1929 69.2296 91.3697 69.3357 91.5111C69.265 91.5111 69.2296 91.5464 69.1589 91.5464C69.1943 91.4757 69.2297 91.405 69.2297 91.2989C69.1943 89.8493 68.0983 88.4705 66.6487 88.223C66.3658 88.1876 66.0476 88.2937 66.0123 88.5765C65.9416 88.824 66.083 89.1776 66.3658 89.213C66.5072 89.2483 66.6487 89.2836 66.7901 89.319C66.8254 89.319 66.8608 89.3544 66.8962 89.3544C66.8255 89.319 66.8254 89.319 66.8608 89.319C66.8608 89.319 66.8962 89.319 66.8962 89.3544C66.9669 89.3897 67.0376 89.4251 67.0729 89.4604C67.1437 89.4958 67.179 89.5312 67.2497 89.5665C67.2851 89.6019 67.3204 89.6019 67.3204 89.6372C67.2143 89.5665 67.2851 89.6372 67.3204 89.6372C67.4265 89.7433 67.5326 89.8493 67.6387 89.9554C67.674 89.9907 67.7094 90.0261 67.7094 90.0261L67.674 89.9908C67.674 90.0261 67.7094 90.0261 67.7094 90.0615C67.7447 90.1322 67.7801 90.1675 67.8155 90.2383C67.8508 90.309 67.8861 90.3797 67.9214 90.415C67.9214 90.4504 67.9568 90.4858 67.9568 90.5211C67.9922 90.6625 68.0629 90.7686 68.0629 90.91C68.0629 90.9453 68.0629 90.9807 68.0982 91.0161C68.0982 91.0868 68.0982 91.1575 68.0982 91.2282C68.0982 91.405 68.2043 91.6172 68.3811 91.6879C67.9215 91.8647 67.4618 92.0768 67.0376 92.2889C66.4365 92.5718 66.9668 93.491 67.5679 93.2081C68.6639 92.6778 70.0075 92.0414 71.245 92.4657C71.5278 92.5718 71.7753 92.6778 71.9521 92.8546C71.9874 92.8899 71.9874 92.9253 72.0228 92.9606C72.0581 92.996 72.0935 92.996 72.1289 93.0313C72.5531 93.491 72.7299 94.092 72.4117 94.7284C71.8814 95.7538 70.6439 96.3548 69.6185 96.7084C68.4518 97.0973 67.1437 97.2033 65.9416 96.9205C63.6788 96.3901 62.0171 94.6931 61.5221 92.4303C61.2746 91.2282 61.2392 89.9554 61.3453 88.7533C61.4514 87.6219 61.8403 86.4552 62.6535 85.642C63.5727 84.7227 64.8809 84.2985 66.083 83.9096C67.6386 83.4146 69.1943 82.9196 70.7499 82.4246C71.3863 82.2124 71.1035 81.1871 70.4671 81.3993C68.8408 81.9296 67.179 82.4246 65.5526 82.9549C64.2798 83.3792 62.9363 83.8742 61.9463 84.8288C60.9564 85.7834 60.4967 87.1269 60.3199 88.4705C60.1432 89.9201 60.1785 91.4403 60.5321 92.8546C60.7089 93.5617 60.9917 94.2335 61.3806 94.8345C60.2139 94.7285 59.4714 93.385 59.0472 92.395C58.4815 91.1222 58.2693 89.708 58.234 88.3291C58.1986 86.9148 58.3754 85.4299 58.7643 84.051C58.9411 83.3085 59.2593 82.6721 59.825 82.1418C60.32 81.6822 60.9917 81.3285 61.5928 81.0103C62.9009 80.3739 64.2091 80.7629 65.588 80.7982C66.2598 80.8336 66.2598 79.7729 65.588 79.7376C64.2091 79.6669 62.8656 79.3133 61.5221 79.879C60.0018 80.5154 58.5522 81.5054 57.9511 83.0964C57.3854 84.6167 57.2086 86.3844 57.1733 88.0108C57.1733 88.5765 57.2087 89.1422 57.2794 89.7079C56.5015 88.9654 56.0419 87.9048 55.9712 86.8088C56.0066 86.738 56.0773 86.7027 56.1126 86.632C56.8197 85.7481 57.3147 84.6874 57.4915 83.556C57.6682 82.4246 57.739 80.975 57.0319 80.0204C56.7137 79.5608 56.2894 79.3133 55.7944 79.1718C55.8298 79.1011 55.8651 79.0305 55.8651 78.9598C55.8651 78.8183 55.9005 78.6769 55.9712 78.5001C56.0066 78.394 56.0066 78.3587 56.0419 78.3233C56.0773 78.2526 56.1126 78.1466 56.1833 78.0759C56.3601 77.793 56.643 77.5101 56.8551 77.3334C57.5622 76.803 58.3754 76.5908 59.224 76.4141C59.5068 76.3434 59.6836 76.0252 59.5775 75.7777C59.5068 75.4949 59.2239 75.3535 58.9411 75.4242C57.9158 75.6363 56.9258 75.9544 56.1126 76.5908C55.3701 77.1919 54.8752 78.0405 54.8045 78.9951C54.8045 79.0304 54.8045 79.0658 54.8045 79.1011C54.3448 79.1011 53.8852 79.1718 53.4609 79.2425C53.4609 79.2425 53.4609 79.2072 53.4255 79.2072C53.4962 79.1365 53.567 79.0658 53.6023 78.9598C54.1327 77.3334 55.5115 76.1666 57.0672 75.5302C58.9411 74.7877 60.9211 74.8231 62.8656 75.2474C64.987 75.707 67.0376 76.5201 69.0882 77.298C70.856 77.9697 72.5884 78.7122 74.2148 79.6315C75.8058 80.5507 77.2908 81.6821 78.4222 83.0964C79.695 84.6874 80.4375 86.5613 80.791 88.5765C81.1092 90.5565 81.0739 92.5718 81.1446 94.587C81.2153 96.673 81.5689 98.7237 81.9224 100.774C82.0992 101.941 82.2052 103.143 82.1699 104.345C82.1345 105.653 81.8517 106.962 82.0285 108.27C82.2053 109.719 82.9478 111.098 83.372 112.512C81.4982 114.563 79.2001 116.048 76.6544 116.932ZM73.6492 92.4303C73.6492 92.4303 73.6845 92.4303 73.6492 92.4303V92.4303ZM69.9368 90.6625C69.9014 90.6625 69.9014 90.6625 69.9368 90.6625V90.6625ZM86.7309 124.922C84.9631 125.736 83.1952 126.549 81.3921 127.221C78.1393 128.423 74.8159 128.953 71.3863 128.387C67.9568 127.857 64.7395 126.407 61.5928 125.028C60.9564 124.746 61.5221 123.826 62.1231 124.109C63.8202 124.852 65.5526 125.63 67.3204 126.231C70.4317 127.327 73.7199 127.892 77.008 127.327C80.2607 126.761 83.266 125.382 86.2005 124.003C86.8016 123.72 87.3319 124.64 86.7309 124.922ZM80.4728 121.988C80.6849 122.235 80.9678 122.412 81.286 122.518C81.887 122.73 82.6295 122.554 83.0538 122.059C83.4427 121.564 83.6195 120.856 83.372 120.255C83.2306 119.902 83.0538 119.654 82.7356 119.442C82.4881 119.265 82.1346 119.195 81.8517 119.195C81.4982 119.195 81.1446 119.301 80.8617 119.478C80.5082 119.69 80.296 119.973 80.1546 120.361C80.1193 120.468 80.1193 120.609 80.19 120.715C80.1193 120.821 80.0486 120.927 80.0839 121.033C80.1193 121.387 80.2253 121.705 80.4728 121.988ZM81.7456 121.564C81.7456 121.564 81.781 121.564 81.8163 121.564C81.781 121.564 81.7456 121.564 81.7456 121.564ZM82.1346 121.528C82.1346 121.493 82.1346 121.493 82.1346 121.528V121.528ZM82.276 121.422C82.276 121.422 82.3114 121.387 82.3114 121.351C82.3114 121.387 82.276 121.387 82.276 121.422ZM82.3821 121.245L82.4174 121.175C82.382 121.21 82.3821 121.245 82.3821 121.245ZM82.4528 120.998C82.4528 120.963 82.4528 120.962 82.4528 120.962C82.4528 120.962 82.4528 120.963 82.4528 120.998ZM82.4174 120.609C82.4174 120.609 82.4174 120.609 82.4174 120.574C82.4174 120.609 82.4174 120.609 82.4174 120.609ZM82.3467 120.503C82.3467 120.503 82.3114 120.468 82.3114 120.432C82.3467 120.468 82.3467 120.503 82.3467 120.503ZM81.5335 120.326C81.4981 120.326 81.4982 120.326 81.4982 120.326C81.4982 120.326 81.4981 120.326 81.5335 120.326ZM81.2507 120.538C81.286 120.503 81.3214 120.468 81.3214 120.432C81.3214 120.432 81.3567 120.432 81.3567 120.397C81.392 120.361 81.4274 120.362 81.4628 120.326C81.4628 120.326 81.4982 120.326 81.4982 120.291C81.5335 120.291 81.6042 120.255 81.6396 120.255C81.6749 120.255 81.6749 120.255 81.7102 120.255C81.7456 120.255 81.781 120.255 81.8517 120.255C81.8871 120.255 81.8871 120.255 81.9224 120.255C81.9578 120.255 82.0285 120.291 82.0285 120.291C82.0639 120.291 82.0638 120.291 82.0992 120.326C82.1346 120.362 82.1699 120.361 82.2053 120.397L82.2406 120.432L82.276 120.468C82.276 120.468 82.276 120.503 82.3114 120.503C82.3114 120.538 82.3467 120.538 82.3467 120.574C82.3467 120.574 82.3467 120.574 82.3821 120.609C82.3821 120.644 82.4174 120.715 82.4174 120.75V120.786C82.4174 120.821 82.4174 120.892 82.4174 120.927C82.4174 120.963 82.4174 120.998 82.4174 120.998C82.4174 121.033 82.3821 121.104 82.3821 121.104C82.3821 121.104 82.3821 121.139 82.3821 121.175V121.21C82.3821 121.245 82.3467 121.245 82.3467 121.281C82.3467 121.281 82.3114 121.316 82.3114 121.351C82.3114 121.351 82.3113 121.387 82.276 121.387C82.2406 121.422 82.2406 121.422 82.2053 121.458L82.1699 121.493C82.1345 121.528 82.0992 121.528 82.0638 121.564H82.0285C81.9931 121.564 81.9932 121.564 81.9578 121.564C81.9225 121.564 81.887 121.564 81.8163 121.564C81.8163 121.564 81.8164 121.564 81.781 121.564H81.7456C81.6749 121.564 81.6396 121.528 81.5689 121.528C81.5689 121.528 81.5335 121.528 81.5335 121.493C81.4981 121.457 81.4274 121.422 81.3921 121.387C81.3567 121.351 81.3567 121.351 81.3214 121.316C81.286 121.281 81.286 121.281 81.2507 121.245L81.2153 121.21C81.2153 121.175 81.1799 121.175 81.1799 121.139C81.1799 121.139 81.1799 121.139 81.1799 121.104V121.069C81.1799 121.033 81.1446 120.998 81.1446 120.962V120.927C81.1446 120.856 81.1092 120.821 81.1092 120.786C81.1446 120.75 81.1799 120.715 81.1799 120.644C81.1799 120.609 81.2153 120.609 81.2153 120.574C81.2153 120.574 81.2153 120.538 81.2507 120.538Z" fill="black"/>
<path d="M104.868 179.299C103.171 174.844 105.929 170.071 108.085 165.793C111.091 159.783 113.035 153.206 113.707 146.524C114.06 142.989 114.273 139.064 116.889 136.66V136.695C118.48 123.684 116.995 110.072 121.45 97.733C122.051 96.1066 122.758 94.4449 124.066 93.2782C125.233 92.1821 126.789 91.5811 128.309 91.0507C130.996 90.1668 133.789 89.4597 136.618 89.0355C139.092 88.6465 141.673 88.4344 144.042 89.1769C145.845 89.7425 147.684 90.9446 148.568 92.677C148.886 93.3135 148.851 94.162 149.452 94.4802C150.088 94.7984 151.29 94.2681 152.103 94.7277C152.846 95.152 153.412 95.8237 153.977 96.4955C154.755 97.4501 155.498 98.4401 156.169 99.4654C156.594 100.066 156.983 100.703 157.124 101.41C157.265 102.082 157.159 102.754 157.053 103.425C155.957 109.895 152.598 115.941 147.649 120.255C146.27 121.457 144.749 122.553 143.229 123.578C141.744 124.568 139.623 125.417 138.35 126.689C137.36 127.679 137.289 129.412 137.007 130.755C136.582 132.806 136.264 134.892 136.052 136.978L136.618 137.544C138.774 138.215 139.587 140.903 139.375 143.13C139.163 145.357 138.279 147.514 138.279 149.777C138.315 153.206 140.401 156.212 142.098 159.217C145.669 165.581 147.507 172.9 147.366 180.183" fill="white"/>
<path d="M156.735 99.3247C156.099 98.3701 155.392 97.4155 154.685 96.4963C154.048 95.6831 153.412 94.8699 152.528 94.3396C152.139 94.1275 151.75 94.0214 151.29 93.986C150.831 93.986 150.406 94.0921 149.947 94.0213C149.593 93.986 149.487 93.7385 149.381 93.4203C149.24 92.996 149.134 92.5717 148.886 92.1475C148.427 91.2989 147.719 90.6272 146.977 90.0261C143.371 87.3037 138.527 88.0462 134.39 88.8594C132.128 89.3191 129.865 89.9201 127.673 90.6979C125.763 91.3697 123.96 92.2889 122.723 93.9506C121.485 95.6477 120.814 97.7337 120.213 99.7137C119.541 101.87 119.046 104.062 118.657 106.29C117.137 115.2 117.455 124.286 116.677 133.302C116.571 134.327 116.465 135.352 116.359 136.378C114.485 138.181 113.813 140.762 113.495 143.237C113.318 144.58 113.212 145.959 113.035 147.303C112.859 148.894 112.576 150.449 112.258 152.005C111.586 155.152 110.667 158.228 109.5 161.198C108.333 164.132 106.777 166.855 105.505 169.718C104.161 172.759 103.1 176.153 104.302 179.406C104.55 180.042 105.575 179.759 105.328 179.123C104.267 176.294 105.08 173.325 106.212 170.673C107.414 167.88 108.934 165.263 110.136 162.47C111.338 159.607 112.293 156.672 113 153.667C113.672 150.732 114.061 147.798 114.379 144.792C114.662 142.176 115.051 139.312 116.925 137.332C116.925 137.332 116.925 137.332 116.96 137.332C122.617 139.171 128.875 141.151 134.779 139.065C135.451 138.817 136.193 138.605 136.759 138.11C138.916 139.029 139.128 142.035 138.774 144.05C138.492 145.606 138.032 147.126 137.855 148.682C137.714 150.167 137.926 151.616 138.386 153.03C139.34 155.859 141.143 158.298 142.487 160.95C143.901 163.743 144.962 166.713 145.704 169.754C146.517 173.148 146.906 176.648 146.871 180.148C146.871 180.82 147.932 180.82 147.932 180.148C148.038 173.749 146.659 167.349 143.936 161.551C143.265 160.137 142.487 158.758 141.709 157.379C140.931 156.071 140.153 154.727 139.588 153.278C139.022 151.828 138.739 150.343 138.881 148.823C139.022 147.197 139.552 145.606 139.835 144.015C140.224 141.54 139.729 138.358 137.29 137.191C137.325 136.908 137.254 136.661 137.007 136.413C136.901 136.307 136.83 136.272 136.724 136.272C136.865 134.999 137.077 133.761 137.29 132.489C137.325 132.418 137.325 132.347 137.325 132.241C137.466 131.534 137.572 130.827 137.678 130.12C137.82 129.271 137.926 128.352 138.35 127.574C138.774 126.761 139.623 126.266 140.365 125.806C141.214 125.276 142.098 124.852 142.946 124.357C143.866 123.791 144.785 123.155 145.633 122.518C147.331 121.281 148.922 119.902 150.336 118.311C152.988 115.376 155.038 111.947 156.346 108.234C156.665 107.315 156.947 106.396 157.16 105.441C157.407 104.451 157.655 103.391 157.69 102.365C157.831 101.269 157.372 100.279 156.735 99.3247ZM146.235 106.608C146.128 106.608 146.022 106.608 145.916 106.608H145.846C146.836 105.583 147.543 104.204 148.002 102.79C148.144 103.143 148.321 103.497 148.497 103.78C148.321 104.628 148.038 105.477 147.401 106.042C147.154 106.29 146.8 106.467 146.447 106.537C146.411 106.537 146.376 106.537 146.341 106.573C146.341 106.608 146.235 106.608 146.235 106.608ZM134.496 138.075C133.754 138.322 133.011 138.534 132.269 138.676C130.678 138.959 129.016 138.994 127.39 138.853C123.996 138.57 120.708 137.474 117.455 136.413C117.738 133.867 117.95 131.322 118.091 128.776C122.263 131.746 127.39 133.337 132.516 133.266C133.719 133.266 134.921 133.125 136.123 132.948C136.087 133.196 136.052 133.408 136.017 133.655C135.84 134.751 135.698 135.883 135.592 137.014C135.557 137.297 135.734 137.438 135.946 137.509C135.875 137.544 135.769 137.615 135.699 137.651C135.31 137.792 134.921 137.933 134.496 138.075ZM156.488 103.78C156.311 104.734 156.099 105.653 155.816 106.608C154.72 110.285 152.917 113.715 150.477 116.649C147.861 119.796 144.537 122.306 140.967 124.286C139.446 125.135 137.749 126.018 137.148 127.786C136.865 128.635 136.759 129.519 136.582 130.403C136.476 130.898 136.406 131.357 136.3 131.852C131.456 132.736 126.329 132.029 121.874 129.837C120.566 129.2 119.329 128.458 118.197 127.574L118.162 127.539C118.445 121.776 118.551 116.013 119.223 110.285C119.718 105.972 120.601 101.658 122.122 97.5569C122.829 95.6831 123.784 93.9506 125.516 92.8546C127.319 91.7585 129.511 91.1929 131.527 90.6625C133.719 90.0968 135.946 89.6019 138.173 89.3544C140.295 89.1069 142.522 89.1069 144.573 89.8847C146.164 90.5211 147.613 91.6525 148.25 93.2435C147.896 93.2789 147.578 93.6324 147.826 94.0213C148.144 94.5163 148.25 95.082 148.285 95.6831C147.295 97.168 147.083 99.0773 147.437 100.845C147.366 101.163 147.295 101.481 147.189 101.8C146.588 103.956 145.457 106.325 143.229 107.103C143.265 107.032 143.335 106.962 143.371 106.891C144.149 105.583 144.608 104.098 145.103 102.684C145.669 101.057 146.164 99.4308 146.411 97.7337C146.694 95.8598 146.623 93.986 146.058 92.2182C145.846 91.5818 144.82 91.8646 145.032 92.501C145.987 95.4002 145.386 98.4408 144.467 101.269C144.042 102.648 143.547 104.027 142.982 105.335C142.451 106.502 141.78 107.598 140.613 108.199C139.552 108.729 138.315 108.765 137.219 108.376C137.891 107.846 138.562 107.315 139.128 106.679C139.906 105.83 140.401 104.805 140.754 103.709C141.143 102.507 141.532 101.305 141.78 100.103C142.345 97.6276 142.381 94.9053 140.896 92.7486C140.507 92.1829 139.588 92.7132 139.977 93.2789C141.073 94.8346 141.249 96.8144 141.002 98.6883C140.86 99.7136 140.578 100.704 140.295 101.729C140.012 102.648 139.764 103.603 139.375 104.451C138.951 105.371 138.35 106.078 137.608 106.714C136.901 107.315 136.158 107.952 135.38 108.447C134.072 109.295 131.668 110.108 130.961 108.093C130.607 107.068 130.925 105.972 131.35 104.982C131.633 104.275 132.128 103.249 133.011 103.249C133.365 103.249 133.612 102.896 133.506 102.577C133.082 101.163 133.188 99.6783 133.86 98.3347C133.931 98.1933 133.931 98.0166 133.895 97.9105C134.532 97.2034 135.062 96.3902 135.486 95.5417C135.592 95.2942 135.557 94.9406 135.31 94.7992C135.062 94.6577 134.708 94.7284 134.567 94.9759C134.32 95.5063 134.001 96.0367 133.648 96.5316C133.613 96.567 133.577 96.6377 133.542 96.673L133.506 96.7084C133.471 96.7438 133.471 96.7438 133.436 96.7791C133.33 96.8852 133.259 97.0266 133.153 97.1327C133.082 97.2034 133.011 97.2741 132.941 97.3448C131.42 96.7438 131.067 94.7992 130.819 93.3496C130.784 93.0668 130.43 92.9253 130.183 92.9961C129.9 93.0668 129.759 93.3496 129.829 93.6325C130.006 94.6578 130.183 95.7185 130.713 96.6377C131.102 97.3095 131.668 97.8752 132.375 98.2287C132.375 98.3348 132.446 98.4762 132.516 98.5469C132.552 98.5823 132.587 98.6176 132.658 98.6176C132.269 99.7844 132.163 101.022 132.41 102.224C131.739 102.436 131.244 103.002 130.855 103.603C130.289 104.557 129.865 105.724 129.829 106.856C129.794 107.81 130.077 108.871 130.784 109.543C131.597 110.32 132.729 110.426 133.754 110.214C134.673 110.038 135.557 109.578 136.335 109.012C137.537 109.649 138.951 109.79 140.259 109.437C141.179 109.189 141.957 108.659 142.593 107.987C142.699 108.164 142.911 108.27 143.159 108.199C143.866 108.022 144.502 107.739 145.068 107.35C146.093 107.845 147.295 107.598 148.179 106.891C148.851 106.325 149.275 105.547 149.523 104.699C149.558 104.734 149.629 104.77 149.664 104.805C150.902 105.547 152.422 105.371 153.73 105.901C154.366 106.148 154.649 105.123 154.013 104.876C152.917 104.416 151.644 104.522 150.548 104.062C149.417 103.567 148.992 102.189 148.709 101.093C148.144 98.9358 148.462 96.3195 150.477 95.0467C150.725 95.0467 150.937 95.0113 151.184 95.0113C151.679 95.0113 152.033 95.1174 152.422 95.4003C153.235 96.0367 153.871 96.9559 154.508 97.7691C155.18 98.653 155.851 99.5369 156.382 100.491C156.841 101.588 156.7 102.613 156.488 103.78ZM121.556 133.266C121.592 133.514 121.591 133.797 121.45 134.009C121.309 134.221 121.132 134.362 120.884 134.433C120.46 134.539 120.036 134.398 119.718 134.115C119.576 133.974 119.435 133.797 119.399 133.62C119.329 133.408 119.364 133.196 119.435 132.984C119.435 132.948 119.47 132.913 119.47 132.878C119.576 132.63 119.824 132.453 120.071 132.418C120.177 132.383 120.283 132.382 120.389 132.382C120.495 132.382 120.637 132.418 120.743 132.453C120.955 132.524 121.132 132.63 121.273 132.771C121.379 132.877 121.521 133.09 121.556 133.266ZM137.997 112.265C139.588 114.457 139.764 117.533 138.456 119.937C138.138 120.538 137.219 120.008 137.537 119.407C138.668 117.321 138.456 114.74 137.077 112.831C136.688 112.23 137.608 111.699 137.997 112.265Z" fill="black"/>
<path d="M87.7205 120.715C88.1801 116.649 90.0186 112.795 92.8471 109.861C93.2006 109.472 93.6249 109.047 93.6603 108.517C93.6956 107.916 93.2007 107.386 92.9885 106.82C92.4228 105.441 93.3068 103.885 93.4482 102.4C93.5896 100.809 92.8117 99.2892 92.8471 97.6982C92.8471 95.0112 95.4634 92.6069 98.1504 92.7837L97.3019 91.9352C100.201 83.768 93.0946 76.9796 89.8418 70.0498C88.7104 67.6456 87.6852 65.0647 87.968 62.4483C88.2509 59.832 90.3368 57.2157 92.9885 57.251C92.5643 54.4579 95.5342 51.7001 98.2919 52.3719C99.0344 51.1344 99.8122 49.791 101.085 49.1546C102.358 48.5182 104.267 48.8363 104.797 50.1798C105.717 49.1545 106.883 48.2 108.262 48.2C109.57 48.2 110.737 49.1192 111.409 50.2152C112.081 51.3113 112.364 52.6194 112.646 53.8922C114.803 52.4426 117.985 53.6447 119.399 55.8368C120.814 58.0289 120.849 60.822 120.425 63.403C119.965 66.1608 119.046 68.8477 117.702 71.2873C116.217 73.939 113.955 76.52 113.106 79.4545C112.116 82.778 113.353 86.5611 114.343 89.7431L114.237 88.9652C115.828 91.4402 116.606 94.4101 116.43 97.3093C116.394 97.8042 116.359 98.37 116.571 98.8296C116.818 99.3599 117.384 99.6781 117.808 100.102C118.233 100.527 118.515 101.234 118.091 101.693" fill="white"/>
<path d="M117.668 72.4192C119.294 69.7321 120.425 66.7268 120.956 63.6155C121.415 60.8224 121.451 57.605 119.648 55.2362C118.163 53.2916 115.37 52.1249 113.036 53.1148C112.576 51.1703 111.869 49.0842 109.96 48.1296C108.263 47.2457 106.601 47.8821 105.258 49.0135C105.081 48.8367 104.798 48.8721 104.586 49.0489C103.773 48.3418 102.606 48.165 101.51 48.4479C99.8836 48.9075 98.8584 50.3924 98.0452 51.7713C98.0099 51.7713 97.9745 51.8067 97.9391 51.8067C95.146 51.4885 92.5296 53.8927 92.4236 56.6504C92.3529 56.6858 92.2822 56.7211 92.2115 56.7565C92.1761 56.7565 92.1761 56.7918 92.1407 56.7918C90.0194 57.1807 88.3576 59.0193 87.7212 61.0699C86.7666 64.0044 87.9334 67.1865 89.1708 69.8382C91.3276 74.5405 94.8278 78.5357 96.5602 83.4148C97.5502 86.1372 97.727 89.0011 96.7724 91.7588C96.7017 92.0063 96.7724 92.1831 96.9491 92.3245C95.3935 92.6073 93.9792 93.5973 93.1307 94.9409C92.6004 95.754 92.2822 96.744 92.2822 97.6986C92.2822 98.9715 92.7418 100.209 92.8832 101.446C92.9893 102.648 92.565 103.709 92.3529 104.876C92.2468 105.406 92.2114 105.901 92.3175 106.432C92.4236 107.033 92.7771 107.492 93.0246 108.058C93.2367 108.553 92.9892 108.906 92.671 109.295C92.2821 109.72 91.8933 110.144 91.5044 110.568C90.7619 111.452 90.0901 112.407 89.5244 113.432C88.2516 115.695 87.4737 118.17 87.1909 120.715C87.1202 121.387 88.1808 121.387 88.2516 120.715C88.4991 118.559 89.1709 116.402 90.1608 114.493C90.6558 113.538 91.2569 112.583 91.9286 111.735C92.2468 111.346 92.565 110.957 92.9186 110.568C93.2722 110.179 93.7318 109.79 93.9793 109.295C94.2268 108.871 94.2621 108.376 94.0853 107.881C93.9439 107.421 93.5903 107.033 93.4136 106.538C93.0246 105.477 93.5904 104.31 93.8025 103.249C94.05 102.118 93.9085 101.022 93.661 99.8907C93.4489 98.83 93.1661 97.7693 93.4489 96.7087C93.9793 94.6934 95.9945 93.1731 98.0805 93.2792C98.2573 93.2792 98.3634 93.2437 98.4341 93.1377C101.545 93.7741 104.763 93.8094 107.874 93.2084C109.359 92.9255 110.879 92.5367 112.258 91.9356C113.071 91.5821 113.849 91.0517 114.344 90.3446C115.193 92.0417 115.723 93.8801 115.829 95.7894C115.865 96.3551 115.865 96.8854 115.829 97.4511C115.794 98.0521 115.794 98.6532 116.112 99.1836C116.36 99.6078 116.713 99.8907 117.102 100.174C117.314 100.35 117.951 100.916 117.668 101.27C117.243 101.8 117.986 102.542 118.41 102.012C119.188 101.022 118.481 99.9614 117.668 99.2897C117.173 98.9007 116.855 98.5472 116.855 97.8754C116.855 97.2037 116.925 96.5672 116.89 95.8955C116.784 93.3145 115.971 90.8042 114.592 88.6475C114.556 88.5768 114.486 88.5061 114.415 88.4707C113.602 85.819 112.789 83.0259 113.319 80.2682C114.026 77.369 116.112 74.9294 117.668 72.4192ZM109.677 49.155C111.127 50.0389 111.657 51.736 112.011 53.327C111.693 53.3624 111.339 53.4331 111.056 53.5038C110.526 53.6098 109.96 53.822 109.5 54.1048C108.475 54.7766 108.086 55.9433 108.334 57.1454C108.687 58.9839 110.314 60.1507 112.081 60.575C112.011 60.7164 112.011 60.8931 112.081 61.0345C112.046 61.0699 112.011 61.1406 111.975 61.2113C111.905 61.4941 111.799 61.777 111.728 62.0599C111.693 62.2013 111.657 62.3427 111.586 62.4841C111.551 62.5902 111.551 62.6963 111.48 62.767C111.374 62.8731 111.162 62.9084 111.021 62.9438C110.809 62.9791 110.597 63.0145 110.384 63.0145C109.607 63.0498 108.864 62.8377 108.228 62.4488C108.228 62.3427 108.263 62.272 108.263 62.166C108.334 60.7164 107.839 59.2668 107.697 57.8172C107.556 56.4029 107.379 54.9887 107.026 53.5745C106.707 52.337 106.283 51.0995 105.788 49.9328C106.849 48.9782 108.228 48.2711 109.677 49.155ZM101.545 49.5439C102.429 49.1549 103.914 49.2964 104.338 50.3218C104.445 50.5692 104.692 50.746 104.94 50.7106C105.399 51.8066 105.753 52.9381 106.036 54.1048C106.389 55.6251 106.531 57.1454 106.707 58.6657C106.849 59.9031 107.308 61.176 107.167 62.4134L107.132 62.4488C107.061 62.5902 107.026 62.7316 107.096 62.8377C107.096 62.8731 107.061 62.9437 107.061 62.9791C106.92 63.5094 106.601 64.0398 106.036 64.2519C105.505 64.4641 104.94 64.3934 104.586 63.9338C104.48 63.7923 104.339 63.757 104.197 63.757C103.773 60.8932 102.783 58.0293 101.439 55.4837C100.803 54.2816 100.131 52.9734 99.0351 52.1248C99.6715 51.1349 100.414 50.0035 101.545 49.5439ZM98.1866 52.9027C98.222 52.9027 98.2219 52.9027 98.2573 52.9027C99.1412 53.5391 99.7069 54.529 100.237 55.4837C100.874 56.6504 101.439 57.8525 101.899 59.0899C102.359 60.3628 102.712 61.6709 102.995 62.9791C103.207 63.9337 103.49 65.1359 103.101 66.1258C102.854 66.7622 102.288 66.9036 101.651 66.8682C101.015 66.8329 100.414 66.7268 99.813 66.5501C99.7069 65.6662 99.2826 64.7115 99.0351 63.9691C98.3987 62.1659 97.6916 60.2567 96.737 58.595C96.0652 57.4282 94.8278 56.3322 93.4842 56.3676C93.7317 54.2108 96.0652 52.4077 98.1866 52.9027ZM113.743 89.5314C113.319 90.3799 112.4 90.8749 111.551 91.1931C110.208 91.7234 108.793 92.077 107.379 92.3245C104.48 92.8195 101.51 92.7487 98.6462 92.1477C98.4341 92.1123 98.2927 92.1831 98.1866 92.2892C98.0452 92.2892 97.9038 92.2892 97.7623 92.2892C97.7977 92.2538 97.8331 92.1831 97.8684 92.1124C98.4695 90.4153 98.6462 88.6475 98.5048 86.9151C98.5755 86.9858 98.7169 87.0565 98.8583 87.0565C103.561 87.1979 108.298 85.9958 112.329 83.5563C112.506 85.5716 113.142 87.5868 113.743 89.5314ZM112.435 79.9853C112.258 80.7631 112.223 81.5409 112.223 82.3541C108.228 84.8644 103.525 86.1372 98.823 85.9604C98.6109 85.9604 98.4695 86.0665 98.3988 86.1726C98.3281 85.713 98.2573 85.2534 98.1512 84.7937C97.5502 82.3895 96.4188 80.1621 95.1813 78.0407C93.9085 75.8487 92.4943 73.7627 91.2922 71.5706C89.9487 69.0957 88.5344 66.2673 88.5344 63.4034C88.5344 60.8578 90.1962 57.7818 93.06 57.7818C93.3075 57.7818 93.4842 57.6404 93.5549 57.4282C94.5449 57.3575 95.4642 58.3475 95.9239 59.196C96.6663 60.5396 97.2673 62.0245 97.7976 63.4741C98.0805 64.252 98.3281 64.9944 98.5755 65.7723C98.6816 66.0905 98.823 66.5147 98.8583 66.8682C98.8583 66.9036 98.8583 66.939 98.8583 66.9743C98.8583 67.2218 98.7877 67.434 98.5755 67.6107C97.6563 68.3886 96.0652 67.6461 95.252 67.045C93.9085 66.0551 93.0954 64.4641 92.3529 63.0145C92.0347 62.4134 91.1154 62.9438 91.4336 63.5448C91.7518 64.1812 92.07 64.7823 92.459 65.3833C92.3882 65.4187 92.3176 65.4186 92.2115 65.454C92.0701 65.4894 91.9286 65.5248 91.7871 65.5248C91.6811 65.5601 91.6458 65.5601 91.469 65.5601C90.9033 65.5954 90.4083 65.5954 89.9134 65.454C89.6305 65.3833 89.3123 65.5247 89.2769 65.8076C89.2062 66.0904 89.3476 66.4086 89.6305 66.444C90.7619 66.6915 91.964 66.6208 93.06 66.2319C93.4843 66.833 94.0146 67.3633 94.5803 67.8229C95.7471 68.7068 97.5855 69.3785 98.9644 68.5653C99.3887 68.3178 99.6362 67.9643 99.7776 67.5754C100.98 67.9289 102.5 68.141 103.455 67.3986C104.162 66.8329 104.374 65.949 104.374 65.0651C105.081 65.4894 106.036 65.4541 106.743 65.0651C107.344 64.7116 107.768 64.1458 107.98 63.5094C108.793 63.9337 109.713 64.1105 110.632 64.0398C111.162 64.0044 111.869 63.8984 112.258 63.4387C112.506 63.1559 112.576 62.8377 112.683 62.4841C112.718 62.3427 112.789 62.1659 112.824 62.0245C113.531 62.8023 114.486 63.3327 115.546 63.5448C115.829 63.5802 116.147 63.4741 116.183 63.1913C116.253 62.9438 116.112 62.5902 115.829 62.5548C115.688 62.5195 115.511 62.4841 115.37 62.4488C115.299 62.4134 115.228 62.4134 115.157 62.3781C115.122 62.3781 115.051 62.3428 115.016 62.3428C114.733 62.2013 114.45 62.0599 114.167 61.8831C114.132 61.8478 114.132 61.8478 114.097 61.8124L114.061 61.777C113.991 61.7417 113.955 61.671 113.885 61.6356C113.779 61.5296 113.672 61.4234 113.566 61.3174C113.531 61.2467 113.46 61.2113 113.425 61.1406L113.39 61.1053C113.354 61.0699 113.354 61.0699 113.319 61.0345C113.248 60.9638 113.213 60.8931 113.177 60.787C113.354 60.787 113.531 60.8224 113.708 60.787C115.299 60.7517 116.819 60.1507 118.163 59.4082C118.764 59.09 118.233 58.1707 117.632 58.4889C115.476 59.691 112.47 60.4689 110.42 58.6304C109.607 57.9233 108.97 56.615 109.607 55.5544C109.889 55.0947 110.349 54.8473 110.844 54.7058C111.127 54.5998 111.41 54.5644 111.693 54.4937C111.975 54.4583 112.258 54.3523 112.506 54.423C112.647 54.4937 112.789 54.4583 112.895 54.423C112.93 54.423 112.965 54.3877 113.001 54.3877C114.945 53.1502 117.597 54.1755 118.87 55.9433C120.532 58.2414 120.355 61.4235 119.824 64.0752C119.223 67.0804 118.057 69.9089 116.43 72.4899C114.91 74.8234 113.001 77.1568 112.435 79.9853ZM105.753 78.7125C101.758 77.475 101.015 72.3484 101.616 68.8128C101.722 68.141 102.748 68.4239 102.641 69.0957C102.111 72.0302 102.641 76.6618 106.036 77.6872C106.707 77.8993 106.424 78.9246 105.753 78.7125Z" fill="black"/>
<path d="M35.9952 25.0422C35.6063 24.4766 36.5255 23.9462 36.9144 24.5119C39.9904 28.9668 43.526 33.0326 47.5212 36.6743C48.0162 37.1339 47.2737 37.8764 46.7788 37.4168C42.7128 33.7398 39.1065 29.5678 35.9952 25.0422ZM146.942 18.5721C142.911 24.4412 139.128 30.4517 135.557 36.6036C134.532 38.3714 133.542 40.1392 132.552 41.907C132.234 42.508 133.153 43.0384 133.471 42.4373C136.901 36.2147 140.578 30.0981 144.467 24.1584C145.563 22.4613 146.694 20.7642 147.861 19.1024C148.25 18.5367 147.331 18.0064 146.942 18.5721ZM111.975 0.89416C110.384 3.263 111.657 6.79856 114.309 7.75317C114.91 7.9653 115.157 7.11678 114.733 6.79858C112.647 5.27827 109.429 6.37431 108.545 8.74315C108.298 9.37956 109.323 9.66242 109.571 9.02601C110.525 6.58646 108.899 3.54587 106.353 2.94482C106.318 3.29838 106.247 3.6519 106.212 3.9701C108.333 4.2176 110.455 3.51046 112.046 2.09623C112.541 1.6366 111.798 0.894177 111.303 1.3538C109.924 2.59126 108.05 3.12156 106.212 2.90943C105.611 2.83872 105.505 3.82865 106.071 3.93471C108.086 4.4297 109.288 6.76319 108.545 8.70776C108.899 8.81383 109.217 8.88456 109.571 8.99062C110.243 7.22283 112.717 6.58644 114.202 7.68247C114.344 7.36427 114.485 7.04608 114.627 6.72788C112.576 6.02076 111.727 3.22765 112.93 1.4245C113.283 0.858804 112.364 0.328465 111.975 0.89416ZM23.3378 49.7206C23.656 50.357 24.2571 50.7106 24.8581 51.0288C25.4238 51.347 25.8834 51.7005 26.1309 52.3016C26.5905 53.3623 26.3783 54.7058 25.4945 55.4836C25.8127 55.625 26.0955 55.7311 26.4137 55.8726C26.5198 54.7412 27.7926 54.034 28.818 53.9987C30.3029 53.928 31.6464 54.7765 32.8485 55.519C32.9899 55.2008 33.1313 54.8826 33.2727 54.5644C31.9646 54.0341 31.0454 52.6905 31.0454 51.2763C31.0454 49.8267 31.9646 48.5539 33.2374 47.9882C33.7678 47.7407 33.4496 47.0336 32.9546 46.9982C32.0353 46.9275 31.2929 47.4932 30.6918 48.0943C30.0554 48.6953 29.4897 49.2256 28.6765 49.4731C27.1208 49.9327 25.3884 49.4378 24.3985 48.165C23.9742 47.6346 23.2317 48.3771 23.656 48.9075C24.7873 50.2864 26.6612 50.8873 28.429 50.6045C29.2775 50.4631 30.0907 50.1095 30.7271 49.5438C31.3989 48.9781 32.0353 47.9882 33.0253 48.0589C32.9192 47.7407 32.8485 47.3871 32.7424 47.0689C31.0807 47.8114 29.9493 49.5792 30.02 51.4177C30.0907 53.2916 31.3282 54.9179 33.0253 55.5897C33.591 55.8018 33.9445 54.918 33.4495 54.6351C31.9292 53.7159 30.2322 52.7259 28.3937 53.0441C26.9088 53.2916 25.5652 54.3522 25.4238 55.9079C25.3884 56.4029 26.0248 56.5443 26.343 56.2968C27.4391 55.3422 27.7573 53.7158 27.333 52.3723C27.1209 51.7005 26.732 51.0995 26.1663 50.6399C25.5652 50.1803 24.6813 49.9682 24.3278 49.261C23.9742 48.5539 23.0549 49.0842 23.3378 49.7206ZM83.5489 6.76319C83.3721 12.703 83.8317 18.6428 84.9277 24.4765C85.0692 25.1483 86.0591 24.8654 85.953 24.1937C84.8923 18.4306 84.4328 12.5969 84.6096 6.76319C84.6449 6.09142 83.5842 6.09142 83.5489 6.76319ZM146.447 57.9585C146.977 58.4535 147.826 58.3121 148.285 57.7818C148.533 57.4636 148.674 57.11 148.674 56.6858C148.674 56.2969 148.568 55.9079 148.462 55.5543C148.392 55.3068 148.179 55.1655 147.967 55.1655C147.366 55.1301 146.765 55.1301 146.2 55.0948C145.917 55.0948 145.669 55.3422 145.669 55.6251C145.669 55.9079 145.917 56.1554 146.2 56.1554C146.801 56.1908 147.402 56.1908 147.967 56.2261C147.791 56.0847 147.614 55.9786 147.472 55.8372C147.508 55.9786 147.543 56.12 147.578 56.2614C147.578 56.3321 147.614 56.4029 147.614 56.4736V56.509C147.614 56.4383 147.614 56.4029 147.614 56.4382C147.614 56.4736 147.614 56.5089 147.614 56.5443C147.614 56.615 147.614 56.6858 147.614 56.7565V56.7918C147.614 56.8625 147.614 56.8272 147.614 56.7565C147.614 56.7565 147.614 56.8272 147.578 56.8626C147.578 56.8979 147.578 56.9332 147.543 56.9686V57.0039C147.508 57.0747 147.543 57.0393 147.578 56.9686C147.543 57.0039 147.543 57.0393 147.508 57.0746C147.578 56.9686 147.578 57.004 147.543 57.0393C147.543 57.0747 147.508 57.0746 147.508 57.0746C147.508 57.0746 147.472 57.11 147.437 57.11C147.543 57.004 147.508 57.0393 147.472 57.0746C147.437 57.11 147.402 57.11 147.331 57.1453C147.26 57.1807 147.437 57.11 147.366 57.1453C147.331 57.1453 147.331 57.1454 147.295 57.1807C147.26 57.1807 147.26 57.1807 147.225 57.1807C147.119 57.2161 147.366 57.1807 147.26 57.1807C147.225 57.1807 147.225 57.1807 147.189 57.1807C147.083 57.1807 147.225 57.1807 147.26 57.1807C147.26 57.1807 147.189 57.1807 147.189 57.1453C147.083 57.11 147.26 57.1807 147.225 57.1807C147.225 57.1807 147.189 57.1453 147.154 57.1453C147.119 57.1453 147.26 57.2514 147.189 57.1453C146.977 56.9332 146.624 56.9332 146.447 57.1453C146.27 57.4282 146.235 57.7818 146.447 57.9585ZM76.6545 19.6328C77.397 22.0723 78.1394 24.5473 78.8818 26.9868C79.094 27.6232 80.1194 27.3757 79.9072 26.704C79.1647 24.2644 78.4223 21.7895 77.6798 19.3499C77.503 18.7135 76.4777 18.9964 76.6545 19.6328ZM46.0009 30.6284C46.9908 31.6184 47.9455 32.573 48.9354 33.563C49.1476 33.7751 49.5012 33.7751 49.6779 33.563C49.8547 33.3508 49.8901 33.0327 49.6779 32.8205C48.688 31.8306 47.7333 30.876 46.7434 29.886C46.5312 29.6739 46.1776 29.6739 46.0009 29.886C45.8241 30.0628 45.7887 30.4163 46.0009 30.6284ZM133.931 28.5071C132.764 30.2749 131.633 32.0426 130.466 33.8104C130.077 34.3761 130.996 34.9065 131.385 34.3408C132.552 32.573 133.683 30.8052 134.85 29.0374C135.239 28.4717 134.32 27.906 133.931 28.5071Z" fill="#FF6F1E"/>
</g>
<defs>
<clipPath id="clip0_47834_24187">
<rect width="180" height="180" fill="white" transform="translate(0.5 0.652237)"/>
</clipPath>
</defs>
</svg>
